PathFileType	4	(X/Y/Z)	pose_F01_0-94.trc
DataRate	CameraRate	NumFrames	NumMarkers	Units	OrigDataRate	OrigDataStartFrame	OrigNumFrames
30	30	12	21	m	30	53	94
Frame#	Time	CHip			RHip			RKnee			RAnkle			RBigToe			RSmallToe			RHeel			LHip			LKnee			LAnkle			LBigToe			LSmallToe			LHeel			Neck			Nose			RShoulder			RElbow			RWrist			LShoulder			LElbow			LWrist			
		X1	Y1	Z1	X2	Y2	Z2	X3	Y3	Z3	X4	Y4	Z4	X5	Y5	Z5	X6	Y6	Z6	X7	Y7	Z7	X8	Y8	Z8	X9	Y9	Z9	X10	Y10	Z10	X11	Y11	Z11	X12	Y12	Z12	X13	Y13	Z13	X14	Y14	Z14	X15	Y15	Z15	X16	Y16	Z16	X17	Y17	Z17	X18	Y18	Z18	X19	Y19	Z19	X20	Y20	Z20	X21	Y21	Z21	
53	1.7666666666666666	-0.2827572541423874	1.8849313143371849	-0.4434111891938684	-0.2961139482280487	1.8818416517991845	-0.37883109426406986	-0.2952877413608756	1.7277774476439676	-0.39314781465347226	-0.3257738292129916	1.6021503980656941	-0.36940706748204016							-0.32952533231943026	1.59001853922602	-0.3822508152780784	-0.2689957405210053	1.888636386477303	-0.502877783506603	-0.25317992818146606	1.728439789591918	-0.5905254104742022													-0.29081941447459086	2.051779101600556	-0.46667892907618674	-0.28959929513839466	2.1176132418569544	-0.43350627766643013	-0.3113593176707754	2.048023261414723	-0.38750936416174137	-0.3051463384087172	1.9835563560386718	-0.30202438937251863	-0.28078003981439736	2.052808111727151	-0.3685477135247466	-0.2677327810858938	2.0604490373040583	-0.5462243279587289	-0.24232084051524674	1.998694056712639	-0.5023830923862096	-0.25743754862404045	2.048618497875561	-0.44513996071521056
54	1.8	-0.28363430411061746	1.8844232840050066	-0.43814510260013567	-0.2960422427132619	1.8802367564047648	-0.3785293300211491	-0.2952877413608756	1.7277774476439676	-0.39314781465347226	-0.3257738292129916	1.6021503980656941	-0.36940706748204016							-0.32952533231943026	1.59001853922602	-0.3822508152780784	-0.2691599583780139	1.8872658026300826	-0.5026126549779736	-0.25317992818146606	1.728439789591918	-0.5905254104742022													-0.28900496426501704	2.050861674273802	-0.46890422452225233	-0.2895040618117133	2.1148430633088386	-0.4248501246255842	-0.3085000489254754	2.0467794420576837	-0.38655001505302194	-0.30587477357088627	1.9845795705371942	-0.2972705116970437	-0.2919012253670932	2.053753402787264	-0.3574517084395052	-0.2668708311171847	2.0584958241916125	-0.5517027525378013	-0.2421894814761892	2.0006781213187956	-0.4942499638175739	-0.26246606853410165	2.0587451940202817	-0.44785333514131326
55	1.8333333333333333	-0.2833721426029863	1.8796331346567696	-0.44291172689258584	-0.29650962021246546	1.8765696810065768	-0.378215134366357	-0.2952877413608756	1.7277774476439676	-0.39314781465347226	-0.3257738292129916	1.6021503980656941	-0.36940706748204016							-0.32952533231943026	1.59001853922602	-0.3822508152780784	-0.26791360630732464	1.8832224539427835	-0.5045564433219257	-0.25317992818146606	1.728439789591918	-0.5905254104742022													-0.28612702119356753	2.0523609128332994	-0.47691550064097316	-0.2896239694564604	2.1151807793952946	-0.43316511397818364	-0.30797346163329375	2.047375675468135	-0.40028328283151504	-0.30924837216680695	1.9868067928367679	-0.29310651517135383	-0.29217863651175274	2.0515063518496457	-0.3789282103713446	-0.262850554238778	2.0582406754334883	-0.5562417813692309	-0.23918204901255607	2.0033743337535856	-0.49367700892241345	-0.26344911889566175	2.0616557282590913	-0.4342660924226704
56	1.8666666666666667	-0.279830001240288	1.8782891410783862	-0.45027344401229724	-0.29517531755902293	1.8778811239405937	-0.38366734878672604	-0.2952877413608756	1.7277774476439676	-0.39314781465347226	-0.3257738292129916	1.6021503980656941	-0.36940706748204016							-0.32952533231943026	1.59001853922602	-0.3822508152780784	-0.26507292540758154	1.8799875379522173	-0.514862561028939	-0.25317992818146606	1.728439789591918	-0.5905254104742022													-0.28007937769920926	2.0537037799460114	-0.4910093742086328	-0.28420402709743053	2.1134030993259887	-0.4480630716611297	-0.3003509212135719	2.0511407081705455	-0.416888470442421	-0.3143531578445097	1.9933745977579531	-0.2878845707930552	-0.29965210086187727	2.0534785194521263	-0.37181811894378813	-0.259615176376326	2.0587217384290515	-0.5718640062722157	-0.2328843360485719	2.0137098066430386	-0.5020233489592567	-0.2504429001066556	2.058723476140595	-0.4187069938559953
57	1.9	-0.2763345139786415	1.8761275902175705	-0.46294799733857356	-0.290104942365643	1.87324471263894	-0.3982258083766701	-0.2952877413608756	1.7277774476439676	-0.39314781465347226	-0.3257738292129916	1.6021503980656941	-0.36940706748204016							-0.32952533231943026	1.59001853922602	-0.3822508152780784	-0.26026278860887675	1.878884753446908	-0.5245648406344202	-0.25317992818146606	1.728439789591918	-0.5905254104742022													-0.2802603431546508	2.052016900663936	-0.49981087083270903	-0.28136199841997217	2.11609975354453	-0.4559873539766114	-0.296017262241195	2.0481856527554747	-0.42667528215454814	-0.3087210040580289	2.0028561090624604	-0.2816757002099526	-0.29196083057918526	2.070173503865784	-0.3748164278597489	-0.26173081967577255	2.0579028648079003	-0.5783835606058676	-0.22451364535393412	2.018903649622699	-0.5288798464293701	-0.21900075195469568	2.0547368691153522	-0.49381717440122935
58	1.9333333333333333	-0.2746941338259475	1.8766954235038273	-0.4741554420366732	-0.28754048902727675	1.874915681652595	-0.4147721754130934	-0.2952877413608756	1.7277774476439676	-0.39314781465347226	-0.3257738292129916	1.6021503980656941	-0.36940706748204016							-0.32952533231943026	1.59001853922602	-0.3822508152780784	-0.259455642233727	1.8800598555755557	-0.5387365663436109	-0.25317992818146606	1.728439789591918	-0.5905254104742022													-0.27337341283696687	2.0541655833803256	-0.5286496386568484	-0.27669565476161395	2.1140672925875976	-0.4724268769981208	-0.2908500163521926	2.048206817455924	-0.45787989248295685	-0.30903013270103313	2.013345284519159	-0.2923121098606167	-0.2954597960440302	2.0764911636626233	-0.3716509967565636	-0.25421631999925637	2.0599001897406817	-0.5990243369714423	-0.20863509452597953	2.0273948703063405	-0.540383419090626	-0.22378311956534466	2.074835186579582	-0.5321764555584211
59	1.9666666666666666	-0.2713008964876905	1.8780169175290466	-0.49893311411320196	-0.2865239683142946	1.875656799535517	-0.42898642913234886	-0.2952877413608756	1.7277774476439676	-0.39314781465347226	-0.3257738292129916	1.6021503980656941	-0.36940706748204016							-0.32952533231943026	1.59001853922602	-0.3822508152780784	-0.2547096404572763	1.8771658295093463	-0.5601519875640336	-0.25317992818146606	1.728439789591918	-0.5905254104742022													-0.27199197599829494	2.0541495226702007	-0.5498080744289395	-0.2769464461794953	2.1188143192165243	-0.5068518599180435	-0.2869522905248054	2.0441560441869724	-0.47692114077373204	-0.3123668625670883	2.0292026575428177	-0.3059554579856625	-0.30249601966351664	2.0883979248805313	-0.40312402515176043	-0.2532442103758645	2.0639289976605184	-0.6238401882313742	-0.20934084985082113	2.0442075803045032	-0.5936571853159771	-0.22856548717599368	2.0949335040438117	-0.5705357367156128
60	2.0	-0.2703693212214598	1.876464113681701	-0.5045341626472992	-0.28282432880361097	1.8762419635473009	-0.4420185997818349	-0.2952877413608756	1.7277774476439676	-0.39314781465347226	-0.3257738292129916	1.6021503980656941	-0.36940706748204016							-0.32952533231943026	1.59001853922602	-0.3822508152780784	-0.2524995692737719	1.8799107175303922	-0.5713128122757172	-0.25317992818146606	1.728439789591918	-0.5905254104742022													-0.26598635495411366	2.055383217755029	-0.5650910329913331	-0.26611187935279035	2.1217319444759006	-0.5238460063334048	-0.2851162473771256	2.0505770921766806	-0.489607836630128	-0.3132157166934029	2.041581116571751	-0.3255329041886964	-0.2988896899224616	2.0973760556989425	-0.4246530249838653	-0.24779618906820777	2.062044668567555	-0.6420308322277484	-0.2100466051756627	2.061020290302666	-0.6469309515413282	-0.23334785478664266	2.1150318215080417	-0.6088950178728045
61	2.033333333333333	-0.2655644587129917	1.8794772615301167	-0.5148214438527605	-0.28121712385292486	1.880458993803263	-0.45376077334645626	-0.2952877413608756	1.7277774476439676	-0.39314781465347226	-0.3257738292129916	1.6021503980656941	-0.36940706748204016							-0.32952533231943026	1.59001853922602	-0.3822508152780784	-0.2495621768300504	1.883962192689714	-0.5796919285225247	-0.25075332276002593	1.724330354363544	-0.5840613883451109													-0.26172886505898424	2.0574248694538086	-0.5783002305118213	-0.2600011824053543	2.1233419437942023	-0.5384484490548036	-0.28310889483987683	2.0534567352921576	-0.5005159879019625	-0.31666981200253097	2.057489883449777	-0.3465989129812827	-0.30083400815572825	2.1084421839172665	-0.4644644501337861	-0.23913328096860892	2.061559555687411	-0.6593378556417712	-0.19771734615362288	2.073304251405106	-0.6653635478557391	-0.21880737372371417	2.122723549983793	-0.6269691071653309
62	2.066666666666667	-0.2614704238071884	1.8841537032408506	-0.5285508416219046	-0.2782618583032219	1.8831100464403365	-0.4619406077899156	-0.2952877413608756	1.7277774476439676	-0.39314781465347226	-0.3257738292129916	1.6021503980656941	-0.36940706748204016							-0.32952533231943026	1.59001853922602	-0.3822508152780784	-0.2461746525396792	1.8833295706848319	-0.5960344817095099	-0.2503877347868289	1.7266840515328308	-0.5931964964257276													-0.26045192203503004	2.057935532747593	-0.5919314422507588	-0.25280799286177325	2.124047232904467	-0.5583778449473951	-0.28026026928720554	2.0537274936152525	-0.5080188155284541	-0.31258644240350925	2.070155568622124	-0.353333819450264	-0.2957712054721951	2.1135473628504102	-0.4741105888994089	-0.2376162309128674	2.0622459653853715	-0.6735619190559873	-0.18739872890517328	2.086922108211409	-0.6908768818472636	-0.20706190391566082	2.126788823898145	-0.6521027290510537
63	2.1	-0.2593893298253645	1.8848739663229603	-0.5394377638045983	-0.2754043230410749	1.8829937666643595	-0.4696370614366485	-0.2952877413608756	1.7277774476439676	-0.39314781465347226	-0.3257738292129916	1.6021503980656941	-0.36940706748204016							-0.32952533231943026	1.59001853922602	-0.3822508152780784	-0.2406371259631093	1.8850699248734404	-0.6061079631465943	-0.2498253468912768	1.7291941044552137	-0.5981725450873455													-0.25832485733498517	2.0576870215700294	-0.5942544808893052	-0.24683747053400884	2.1265171867935893	-0.5661237947016935	-0.27827357262142643	2.0548363943250667	-0.5105757871037674	-0.3090383930271238	2.077918406534317	-0.36670112713700204	-0.2906572003675736	2.1190315777452104	-0.48344949717462404	-0.23193642075661922	2.0624375194004574	-0.6826734114982115	-0.17862688569209667	2.0998696539834523	-0.70280787671069	-0.20671561680339395	2.140387338573631	-0.7037654000071655
64	2.1333333333333333	-0.26040426556542934	1.8790914070151088	-0.5421274888472687	-0.2745177531536028	1.877354239512898	-0.47417682951850665	-0.2952877413608756	1.7277774476439676	-0.39314781465347226	-0.3257738292129916	1.6021503980656941	-0.36940706748204016							-0.32952533231943026	1.59001853922602	-0.3822508152780784	-0.23970908847183847	1.8813833170531322	-0.6111132724509217	-0.24777051066338215	1.7266794802031207	-0.6001209394612141													-0.25426484900087487	2.056155009721853	-0.5981300548644529	-0.24383562204145548	2.121286014539732	-0.5718136381775896	-0.2780439101221359	2.053377874663617	-0.509594628188649	-0.3064995591930738	2.0823068337312547	-0.3607760585063602	-0.2938022772684425	2.1265332587618895	-0.5032321906745751	-0.2296841520527754	2.06137554394229	-0.6843409424670704	-0.17497225924298462	2.104383727167538	-0.7104169936533344	-0.20401709173575033	2.143205400798506	-0.7135227378086751
